<svg xmlns="http://www.w3.org/2000/svg" viewBox="0 0 800 500" role="img" aria-label="RF drying system illustration">
  <defs>
    <linearGradient id="drybg" x1="0" x2="1" y1="0" y2="1">
      <stop offset="0" stop-color="#f9fbfa"/>
      <stop offset="1" stop-color="#dfe9e5"/>
    </linearGradient>
    <linearGradient id="belt" x1="0" x2="1">
      <stop offset="0" stop-color="#182224"/>
      <stop offset="1" stop-color="#4e5f62"/>
    </linearGradient>
  </defs>
  <rect width="800" height="500" fill="url(#drybg)"/>
  <rect y="372" width="800" height="128" fill="#d5dedb"/>
  <path d="M106 290h588v80H106z" fill="url(#belt)"/>
  <path d="M146 330h508" stroke="#4fb7bb" stroke-width="10" stroke-linecap="round"/>
  <path d="M190 146h420v144H190z" fill="#243033"/>
  <path d="M226 176h348v76H226z" fill="#eef4f3"/>
  <path d="M250 214c34-42 68-42 102 0s68 42 102 0 68-42 102 0" fill="none" stroke="#d7932d" stroke-width="9" stroke-linecap="round"/>
  <path d="M218 290v80M582 290v80" stroke="#172022" stroke-width="20"/>
  <circle cx="240" cy="370" r="18" fill="#172022"/>
  <circle cx="560" cy="370" r="18" fill="#172022"/>
  <path d="M284 116h232l28 30H256z" fill="#0e7f81"/>
  <path d="M236 404h328" stroke="#172022" stroke-opacity=".14" stroke-width="9" stroke-linecap="round"/>
  <path d="M626 192h48v48h-48z" fill="#ffffff" stroke="#8fa0a1" stroke-width="5"/>
  <path d="M636 216h28" stroke="#0e7f81" stroke-width="7" stroke-linecap="round"/>
</svg>
