<svg xmlns="http://www.w3.org/2000/svg" viewBox="0 0 800 500" role="img" aria-label="Plastic welding press illustration">
  <defs>
    <linearGradient id="panel" x1="0" x2="1" y1="0" y2="1">
      <stop offset="0" stop-color="#f8fbfa"/>
      <stop offset="1" stop-color="#dce8e6"/>
    </linearGradient>
    <linearGradient id="body" x1="0" x2="1">
      <stop offset="0" stop-color="#172022"/>
      <stop offset="1" stop-color="#304044"/>
    </linearGradient>
  </defs>
  <rect width="800" height="500" fill="url(#panel)"/>
  <rect y="368" width="800" height="132" fill="#cfdad8"/>
  <path d="M210 116h380v254H210z" fill="url(#body)"/>
  <path d="M250 152h300v72H250z" fill="#eef4f3"/>
  <path d="M278 264h244v54H278z" fill="#ffffff" stroke="#93a3a4" stroke-width="6"/>
  <path d="M302 286h196" stroke="#d7932d" stroke-width="12" stroke-linecap="round"/>
  <path d="M316 238h168" stroke="#4fb7bb" stroke-width="10" stroke-linecap="round"/>
  <path d="M192 370h416v52H192z" fill="#243033"/>
  <path d="M252 422v38M548 422v38" stroke="#172022" stroke-width="18" stroke-linecap="round"/>
  <circle cx="526" cy="188" r="13" fill="#0e7f81"/>
  <circle cx="486" cy="188" r="9" fill="#d7932d"/>
  <path d="M104 180h72v156h-72zM624 180h72v156h-72z" fill="#ffffff" stroke="#8da0a1" stroke-width="5"/>
  <path d="M118 218h44M638 218h44M118 250h44M638 250h44" stroke="#0e7f81" stroke-width="7" stroke-linecap="round"/>
</svg>
